<?xml version="1.0" encoding="utf-8"?>
<!-- Generator: Adobe Illustrator 21.1.0, SVG Export Plug-In . SVG Version: 6.00 Build 0)  -->
<svg version="1.1" id="Layer_1" xmlns="http://www.w3.org/2000/svg" xmlns:xlink="http://www.w3.org/1999/xlink" x="0px" y="0px"
	 viewBox="0 0 512 512" style="enable-background:new 0 0 512 512;" xml:space="preserve">
<style type="text/css">
	.st0{fill:#16A388;}
	.st1{fill:#1ABC9C;}
	.st2{fill:#2AD3B3;}
	.st3{fill:#1D8772;}
	.st4{opacity:0.31;}
	.st5{fill:#218E64;}
	.st6{fill:#F9F9F9;}
	.st7{opacity:0.13;}
	.st8{fill:#FFFFFF;}
	.st9{fill:#FCCC00;}
</style>
<g>
	<rect x="22.1" y="16.1" class="st0" width="468.6" height="125.8"/>
	<path class="st1" d="M467.7,501.4H45c-17.3,0-31.3-15.1-31.3-33.6V141.9H499v325.9C499,486.3,485,501.4,467.7,501.4z"/>
	<polyline class="st2" points="423.7,70 473.9,16.1 490.6,16.1 490.6,141.9 473.9,141.9 423.7,70 	"/>
	<polygon class="st3" points="423.7,70 423.7,141.9 473.9,141.9 	"/>
	<polyline class="st2" points="89,70 38.8,16.1 22.1,16.1 22.1,141.9 38.8,141.9 89,70 	"/>
	<polygon class="st3" points="89,70 89,141.9 38.8,141.9 	"/>
	<ellipse class="st3" cx="155.9" cy="213.8" rx="25.1" ry="27"/>
	<ellipse class="st3" cx="356.8" cy="213.8" rx="25.1" ry="27"/>
	<g>
		<g class="st4">
			<path class="st5" d="M257.3,385.5c-60,0-108.8-52.4-108.8-116.8v-53.9c0-5,3.7-9,8.4-9s8.4,4,8.4,9v53.9
				c0,54.5,41.3,98.9,92,98.9s92-44.4,92-98.9v-53.9c0-5,3.7-9,8.4-9c4.6,0,8.4,4,8.4,9v53.9C366.1,333.1,317.3,385.5,257.3,385.5z"
				/>
		</g>
		<g>
			<path class="st6" d="M256.3,384.5c-60,0-108.8-52.4-108.8-116.8v-53.9c0-5,3.7-9,8.4-9s8.4,4,8.4,9v53.9
				c0,54.5,41.3,98.9,92,98.9s92-44.4,92-98.9v-53.9c0-5,3.7-9,8.4-9c4.6,0,8.4,4,8.4,9v53.9C365.1,332.1,316.3,384.5,256.3,384.5z"
				/>
		</g>
	</g>
</g>
<g>
	<g class="st7">
		<circle cx="259.5" cy="307.5" r="50.5"/>
	</g>
	<g>
		<circle class="st8" cx="256.5" cy="306.5" r="50.5"/>
	</g>
</g>
<g>
	<g class="st7">
		<circle cx="257.5" cy="306.5" r="40"/>
	</g>
	<g>
		<circle class="st9" cx="256.5" cy="306.5" r="40"/>
	</g>
</g>
</svg>
