<?xml version="1.0" encoding="utf-8"?>
<!-- Generator: Adobe Illustrator 21.1.0, SVG Export Plug-In . SVG Version: 6.00 Build 0)  -->
<svg version="1.1" id="Layer_1" xmlns="http://www.w3.org/2000/svg" xmlns:xlink="http://www.w3.org/1999/xlink" x="0px" y="0px"
	 viewBox="0 0 3166 512" style="enable-background:new 0 0 3166 512;" xml:space="preserve">
<style type="text/css">
	.st0{fill:#16A388;}
	.st1{fill:#1ABC9C;}
	.st2{fill:#2AD3B3;}
	.st3{fill:#1D8772;}
	.st4{opacity:0.31;}
	.st5{fill:#218E64;}
	.st6{fill:#F9F9F9;}
	.st7{opacity:0.13;}
	.st8{fill:#FFFFFF;}
	.st9{fill:#FCCC00;}
	.st10{fill:none;}
	.st11{font-family:'TypoGotikaLightDemo';}
	.st12{font-size:342px;}
	.st13{font-family:'TypoGotikaBlackDemo';}
</style>
<g>
	<rect x="26.4" y="13" class="st0" width="468.6" height="125.8"/>
	<path class="st1" d="M472,498.3H49.3C32,498.3,18,483.3,18,464.7V138.8h485.3v325.9C503.3,483.3,489.3,498.3,472,498.3z"/>
	<polyline class="st2" points="428,66.9 478.2,13 494.9,13 494.9,138.8 478.2,138.8 428,66.9 	"/>
	<polygon class="st3" points="428,66.9 428,138.8 478.2,138.8 	"/>
	<polyline class="st2" points="93.3,66.9 43.1,13 26.4,13 26.4,138.8 43.1,138.8 93.3,66.9 	"/>
	<polygon class="st3" points="93.3,66.9 93.3,138.8 43.1,138.8 	"/>
	<ellipse class="st3" cx="160.2" cy="210.7" rx="25.1" ry="27"/>
	<ellipse class="st3" cx="361.1" cy="210.7" rx="25.1" ry="27"/>
	<g>
		<g class="st4">
			<path class="st5" d="M261.7,382.5c-60,0-108.8-52.4-108.8-116.8v-53.9c0-5,3.7-9,8.4-9s8.4,4,8.4,9v53.9
				c0,54.5,41.3,98.9,92,98.9s92-44.4,92-98.9v-53.9c0-5,3.7-9,8.4-9s8.4,4,8.4,9v53.9C370.4,330.1,321.6,382.5,261.7,382.5z"/>
		</g>
		<g>
			<path class="st6" d="M260.7,381.5c-60,0-108.8-52.4-108.8-116.8v-53.9c0-5,3.7-9,8.4-9s8.4,4,8.4,9v53.9
				c0,54.5,41.3,98.9,92,98.9s92-44.4,92-98.9v-53.9c0-5,3.7-9,8.4-9s8.4,4,8.4,9v53.9C369.4,329.1,320.6,381.5,260.7,381.5z"/>
		</g>
	</g>
</g>
<g>
	<g class="st7">
		<circle cx="263.8" cy="304.4" r="50.5"/>
	</g>
	<g>
		<circle class="st8" cx="260.8" cy="303.4" r="50.5"/>
	</g>
</g>
<g>
	<g class="st7">
		<circle cx="261.8" cy="303.4" r="40"/>
	</g>
	<g>
		<circle class="st9" cx="260.8" cy="303.4" r="40"/>
	</g>
</g>
<rect x="556.8" y="133.7" class="st10" width="2593.2" height="395"/>
<text transform="matrix(1 0 0 1 556.7607 376.5205)"><tspan x="0" y="0" class="st1 st11 st12">Mumineen</tspan><tspan x="1756.8" y="0" class="st1 st13 st12">shop</tspan></text>
</svg>
